<svg xmlns="http://www.w3.org/2000/svg" x="0px" y="0px" width="48" height="48" viewBox="0,0,256,256"
style="fill:#000000;">
<g fill="#ffffff" fill-rule="nonzero" stroke="none" stroke-width="1" stroke-linecap="butt" stroke-linejoin="miter" stroke-miterlimit="10" stroke-dasharray="" stroke-dashoffset="0" font-family="none" font-weight="none" font-size="none" text-anchor="none" style="mix-blend-mode: normal"><g transform="scale(5.33333,5.33333)"><path d="M24,44c-11.028,0 -20,-8.972 -20,-20c0,-11.028 8.972,-20 20,-20c11.028,0 20,8.972 20,20c0,11.028 -8.972,20 -20,20zM24,6c-9.925,0 -18,8.075 -18,18c0,9.925 8.075,18 18,18c9.925,0 18,-8.075 18,-18c0,-9.925 -8.075,-18 -18,-18z"></path><path d="M38.34,14.87l-4.07,4.58h-0.01l-0.09,0.11l-10.17,11.44l-14.33,-16.13c0.71,-1.13 1.56,-2.17 2.52,-3.09l7.81,6.22c0,0 1.12,-2.81 2.09,-4.82c0.77,-1.62 1.62,-2.18 2.91,-2.18c2,0 2.98,0.2 3,1c0,0 -0.35,0 -1,0c-1.11,0 -1.06,1.17 -0.9,1.56c0.5,1.23 1.9,4.44 1.9,4.44l7.81,-6.22c0.96,0.92 1.81,1.96 2.53,3.09zM39.02,31.97c-0.75,1.41 -1.69,2.7 -2.79,3.83l-6.83,-8.27l2.67,-3.15zM40.93,25.47c-0.17,2.08 -0.72,4.05 -1.58,5.84l-6.81,-7.5l2.76,-3.26zM41,24c0,0.2 0,0.39 -0.01,0.59l-5.21,-4.6l3.28,-3.88c1.24,2.35 1.94,5.04 1.94,7.89z"></path><path d="M33.86,37.85c-2.78,1.98 -6.18,3.15 -9.86,3.15c-3.68,0 -7.08,-1.17 -9.86,-3.15l6.5,-9.42l3.36,3.57l3.36,-3.57zM18.6,27.53l-6.84,8.26c-1.1,-1.13 -2.03,-2.42 -2.78,-3.82l6.95,-7.59zM15.46,23.81l-6.81,7.5c-0.86,-1.79 -1.41,-3.76 -1.58,-5.84l5.63,-4.92zM12.22,19.99l-5.21,4.6c-0.01,-0.2 -0.01,-0.39 -0.01,-0.59c0,-2.85 0.7,-5.54 1.94,-7.89zM34.27,19.45l-0.1,0.11l-0.1,-0.09z"></path></g></g>
</svg>